# 3ds Max Wavefront OBJ Exporter v0.97b - (c)2007 guruware
# File Created: 25.10.2016 20:03:02

mtllib Prop_Lantern.mtl

#
# object initialShadingGroup_polySurface26
#

v  2.0672 0.5844 9.1203
v  1.0335 0.5844 7.2744
v  1.0335 2.0391 7.2744
v  2.0672 2.0391 9.1203
v  0.8950 0.3579 8.5894
v  -0.0002 0.7547 8.0586
v  0.9366 2.1170 9.5638
v  0.8465 1.9334 8.5183
v  -1.0339 0.5844 7.2744
v  -1.0339 2.0391 7.2744
v  -0.0903 1.8555 8.0747
v  -0.8954 0.2953 8.5894
v  -2.0676 0.5844 9.1203
v  -2.0676 2.0391 9.1203
v  -0.8954 0.3227 9.6511
v  -0.9371 1.9612 8.6767
v  -1.0339 0.5844 10.9662
v  -1.0339 2.0391 10.9662
v  -0.0002 0.6769 10.1820
v  -0.8470 2.1448 9.7223
v  1.0335 0.5844 10.9662
v  1.0335 2.0391 10.9662
v  0.8950 0.8554 9.6511
v  0.0899 2.2227 10.1658
v  -0.9617 -1.1115 0.2741
v  -1.9198 -0.0930 0.0094
v  -1.9198 2.9167 0.0094
v  1.8698 2.9167 1.0563
v  1.8698 -0.0930 1.0563
v  0.9117 -1.1115 0.7916
v  0.9447 -1.1115 7.2744
v  1.9367 -0.0930 7.2744
v  1.9367 2.9167 7.2744
v  -1.9867 2.9167 7.2744
v  -1.9867 -0.0930 7.2744
v  -0.9947 -1.1115 7.2744
v  -1.2537 -0.4872 3.0841
v  -2.0130 1.7923 3.3691
v  1.0896 -0.4289 2.2048
v  -0.2908 -0.9778 2.7228
v  0.7793 2.9028 2.3213
v  1.5386 0.6232 2.0363
v  -2.2232 0.4922 4.4141
v  -1.0862 3.0592 4.7205
v  0.3820 -1.1050 5.0083
v  -1.6489 -0.6229 4.5466
v  2.0923 2.0840 5.6546
v  1.4148 -0.4830 5.3482
v  2.3081 -2.5515 3.1252
v  -0.0000 -2.5515 1.7513
v  -0.0000 -1.5519 1.7513
v  2.3081 -1.5519 3.1252
v  0.8873 -2.9408 3.1725
v  -0.6538 -2.6618 3.0313
v  -0.0000 -0.7625 2.8796
v  1.3603 -0.7625 3.6893
v  -0.0000 -0.6381 2.8796
v  1.3603 -0.6381 3.6893
v  -2.3081 -2.5515 3.1252
v  -2.3081 -1.5519 3.1252
v  -1.5410 -2.5012 4.3579
v  -1.3603 -0.7625 3.6893
v  -1.3603 -0.6381 3.6893
v  -2.3081 -2.5515 5.8730
v  -2.3081 -1.5519 5.8730
v  -0.8873 -2.6196 5.8256
v  -1.3603 -0.7625 5.3088
v  -1.3603 -0.6381 5.3088
v  -0.0000 -2.5515 7.2469
v  -0.0000 -1.5519 7.2469
v  0.6538 -2.8986 5.9668
v  -0.0000 -0.7625 6.1185
v  -0.0000 -0.6381 6.1185
v  2.3081 -2.5515 5.8730
v  2.3081 -1.5519 5.8730
v  1.5410 -3.0592 4.6402
v  1.3603 -0.7625 5.3088
v  1.3603 -0.6381 5.3088
# 78 vertices

vn 0.8660 -0.0000 -0.5000
vn 0.0056 -0.9854 -0.1699
vn -0.8407 -0.0022 0.5415
vn -0.0664 0.9971 -0.0370
vn 0.0000 0.0000 -1.0000
vn 0.5606 -0.1958 0.8046
vn 0.0491 -0.0104 0.9987
vn -0.0476 0.9862 0.1583
vn -0.8660 0.0000 -0.5000
vn -0.2698 -0.9587 -0.0898
vn 0.8854 -0.0015 0.4648
vn 0.1140 0.9924 0.0472
vn -0.8660 0.0000 0.5000
vn -0.0521 -0.9803 0.1903
vn 0.8409 -0.0019 -0.5412
vn 0.0000 0.0000 1.0000
vn 0.0304 -0.9869 -0.1582
vn -0.0451 -0.0077 -0.9990
vn 0.8660 -0.0000 0.5000
vn 0.1480 -0.9853 0.0854
vn -0.8858 -0.0020 -0.4641
vn -0.0000 -0.9765 -0.2156
vn -0.9847 -0.1578 0.0743
vn 0.2588 -0.0000 -0.9659
vn -0.9897 -0.1347 0.0476
vn -0.9469 -0.3174 -0.0515
vn -0.9987 0.0229 0.0451
vn -0.9996 0.0000 -0.0286
vn 0.1662 -0.9706 0.1741
vn 0.4089 -0.8968 0.1690
vn 0.1529 -0.9880 0.0210
vn -0.0159 -0.9981 0.0592
vn 0.8051 0.1271 0.5793
vn 0.9345 0.2948 0.1993
vn 0.9821 0.0815 0.1701
vn 0.9443 -0.0000 0.3290
vn -0.1729 0.9614 0.2139
vn -0.0942 0.9951 0.0287
vn -0.1531 0.9674 0.2017
vn -0.6649 -0.7410 0.0941
vn -0.4261 -0.9027 0.0600
vn -0.5745 -0.8115 -0.1063
vn -0.7268 -0.6828 0.0745
vn 0.7557 -0.5398 0.3708
vn 0.9051 -0.3607 0.2251
vn 0.8372 -0.5286 0.1403
vn 0.6613 -0.7050 0.2561
vn -0.9837 0.1695 -0.0594
vn -0.9663 0.2572 0.0102
vn -0.1525 -0.9882 0.0138
vn -0.1778 -0.9839 -0.0198
vn 0.9815 -0.1765 0.0741
vn 0.9805 -0.1807 -0.0772
vn 0.0522 0.9809 -0.1876
vn -0.8494 -0.5235 -0.0669
vn -0.8496 -0.5214 -0.0793
vn 0.5509 -0.8345 -0.0107
vn 0.5531 -0.8304 -0.0669
vn -0.9398 0.0000 -0.3417
vn -0.9729 0.2132 -0.0894
vn -0.0000 -0.9842 -0.1770
vn -0.0964 -0.9918 -0.0839
vn 0.9631 -0.0000 -0.2690
vn 0.9874 -0.1579 0.0041
vn 0.1763 0.9831 -0.0499
vn 0.0000 0.8886 -0.4587
vn 0.3669 0.8333 -0.4135
vn -0.7046 -0.7046 -0.0847
vn -0.7626 -0.6464 -0.0262
vn 0.6955 -0.6955 -0.1801
vn 0.6456 -0.7545 -0.1183
vn -0.0024 1.0000 0.0089
vn 0.5000 -0.0000 -0.8660
vn 0.0436 -0.9557 -0.2910
vn -0.3029 0.0009 0.9530
vn 0.3423 0.7290 -0.5928
vn -0.5000 0.0000 -0.8660
vn -0.0659 -0.9976 -0.0209
vn 0.6780 0.0054 0.7350
vn -0.3423 0.7290 -0.5928
vn -1.0000 0.0000 0.0000
vn 0.0075 -0.9995 -0.0294
vn 0.9770 0.0117 -0.2129
vn -0.6846 0.7290 0.0000
vn -0.5000 0.0000 0.8660
vn -0.1162 -0.9857 0.1222
vn 0.3030 0.0010 -0.9530
vn -0.3423 0.7290 0.5928
vn 0.5000 -0.0000 0.8660
vn 0.2067 -0.9288 0.3076
vn -0.6776 0.0046 -0.7354
vn 0.3423 0.7290 0.5928
vn 1.0000 -0.0000 0.0000
vn 0.4102 -0.9074 -0.0912
vn -0.9769 0.0092 0.2136
vn 0.6846 0.7290 0.0000
# 96 vertex normals

vt 0.7160 0.3760 0.0000
vt 0.6610 0.3767 0.0000
vt 0.6605 0.3389 0.0000
vt 0.7155 0.3381 0.0000
vt 0.8526 0.4523 0.0000
vt 0.8755 0.4396 0.0000
vt 0.8867 0.4705 0.0000
vt 0.8266 0.4742 0.0000
vt 0.8393 0.2732 0.0000
vt 0.8272 0.2643 0.0000
vt 0.8588 0.2508 0.0000
vt 0.8580 0.2620 0.0000
vt 0.8254 0.2314 0.0000
vt 0.8876 0.2317 0.0000
vt 0.9917 0.3417 0.0000
vt 0.9902 0.3795 0.0000
vt 0.9365 0.3774 0.0000
vt 0.9379 0.3396 0.0000
vt 0.8869 0.2704 0.0000
vt 0.8739 0.2709 0.0000
vt 0.9179 0.2848 0.0000
vt 0.8814 0.3752 0.0000
vt 0.8829 0.3375 0.0000
vt 0.8781 0.4100 0.0000
vt 0.8542 0.3954 0.0000
vt 0.9111 0.4225 0.0000
vt 0.8833 0.3043 0.0000
vt 0.8717 0.2901 0.0000
vt 0.8249 0.3746 0.0000
vt 0.8244 0.3366 0.0000
vt 0.8293 0.4085 0.0000
vt 0.8512 0.3180 0.0000
vt 0.8555 0.3003 0.0000
vt 0.7711 0.3753 0.0000
vt 0.7706 0.3374 0.0000
vt 0.8292 0.4331 0.0000
vt 0.7961 0.4273 0.0000
vt 0.8241 0.2973 0.0000
vt 0.8394 0.2912 0.0000
vt 0.7930 0.2842 0.0000
vt 0.9107 0.1025 0.0000
vt 0.9368 0.0898 0.0000
vt 0.9952 0.1091 0.0000
vt 0.9692 0.1848 0.0000
vt 0.9113 0.1647 0.0000
vt 0.8983 0.1380 0.0000
vt 0.7601 0.1384 0.0000
vt 0.7392 0.1584 0.0000
vt 0.6778 0.1578 0.0000
vt 0.6788 0.0779 0.0000
vt 0.7401 0.0787 0.0000
vt 0.7607 0.0994 0.0000
vt 0.9173 0.0767 0.0000
vt 0.8517 0.0871 0.0000
vt 0.8546 0.0350 0.0000
vt 0.9216 0.0176 0.0000
vt 0.8678 0.1440 0.0000
vt 0.8591 0.1106 0.0000
vt 0.8982 0.2175 0.0000
vt 0.8647 0.2173 0.0000
vt 0.8718 0.1692 0.0000
vt 0.8945 0.1596 0.0000
vt 0.5142 0.1001 0.0000
vt 0.5851 0.0864 0.0000
vt 0.5678 0.1489 0.0000
vt 0.8196 0.0634 0.0000
vt 0.8233 0.0069 0.0000
vt 0.8070 0.1292 0.0000
vt 0.8169 0.0877 0.0000
vt 0.7934 0.2080 0.0000
vt 0.8001 0.1536 0.0000
vt 0.6411 0.1644 0.0000
vt 0.7674 0.0088 0.0000
vt 0.7618 0.0707 0.0000
vt 0.7597 0.1657 0.0000
vt 0.7608 0.2261 0.0000
vt 0.6264 0.0956 0.0000
vt 0.5449 0.1742 0.0000
vt 0.7128 0.2349 0.0000
vt 0.6749 0.2131 0.0000
vt 0.6832 0.2021 0.0000
vt 0.7182 0.2215 0.0000
vt 0.6914 0.2339 0.0000
vt 0.6628 0.2304 0.0000
vt 0.6721 0.2420 0.0000
vt 0.6845 0.2501 0.0000
vt 0.7000 0.1902 0.0000
vt 0.7200 0.2010 0.0000
vt 0.6369 0.2351 0.0000
vt 0.6315 0.2223 0.0000
vt 0.6660 0.2017 0.0000
vt 0.6454 0.2546 0.0000
vt 0.6593 0.2495 0.0000
vt 0.6485 0.1903 0.0000
vt 0.6291 0.2022 0.0000
vt 0.6370 0.2800 0.0000
vt 0.6233 0.2783 0.0000
vt 0.6226 0.2371 0.0000
vt 0.6581 0.2819 0.0000
vt 0.6591 0.2647 0.0000
vt 0.6048 0.2698 0.0000
vt 0.6042 0.2464 0.0000
vt 0.6752 0.3016 0.0000
vt 0.6670 0.3127 0.0000
vt 0.6317 0.2934 0.0000
vt 0.6871 0.2835 0.0000
vt 0.6714 0.2726 0.0000
vt 0.6502 0.3246 0.0000
vt 0.6301 0.3139 0.0000
vt 0.7130 0.2795 0.0000
vt 0.7184 0.2922 0.0000
vt 0.6841 0.3129 0.0000
vt 0.7027 0.2599 0.0000
vt 0.6841 0.2653 0.0000
vt 0.7016 0.3243 0.0000
vt 0.7210 0.3124 0.0000
vt 0.7265 0.2365 0.0000
vt 0.7273 0.2776 0.0000
vt 0.7450 0.2450 0.0000
vt 0.7457 0.2683 0.0000
# 120 texture coords

g initialShadingGroup_polySurface26
usemtl _Prop_Lanterndefault
s off
f 1/1/1 2/2/1 3/3/1 4/4/1 
f 5/5/2 6/6/2 2/7/2 1/8/2 
f 5/9/3 7/10/3 8/11/3 6/12/3 
f 4/13/4 3/14/4 8/11/4 7/10/4 
f 3/15/5 2/16/5 2/16/5 
f 3/15/5 2/16/5 9/17/5 10/18/5 
f 2/7/6 2/7/6 
f 6/12/7 8/11/7 11/19/7 12/20/7 
f 3/14/8 10/21/8 11/19/8 8/11/8 
f 9/17/9 13/22/9 14/23/9 10/18/9 
f 12/24/10 15/25/10 13/22/10 9/26/10 
f 12/20/11 11/19/11 16/27/11 15/28/11 
f 10/21/12 14/23/12 16/27/12 11/19/12 
f 13/22/13 17/29/13 18/30/13 14/23/13 
f 15/25/14 19/31/14 17/29/14 13/22/14 
f 15/28/15 16/27/15 20/32/15 19/33/15 
f 14/23/4 18/30/4 20/32/4 16/27/4 
f 17/29/16 21/34/16 22/35/16 18/30/16 
f 19/31/17 23/36/17 21/37/17 17/29/17 
f 19/33/18 20/32/18 24/38/18 23/39/18 
f 18/30/8 22/40/8 24/38/8 20/32/8 
f 21/34/19 1/1/19 4/4/19 22/35/19 
f 21/37/20 5/5/20 1/8/20 
f 23/39/21 24/38/21 7/10/21 5/9/21 
f 22/40/12 4/13/12 7/10/12 24/38/12 
f 12/24/22 9/26/22 2/7/22 
f 21/37/23 23/36/23 5/5/23 
f 25/41/24 26/42/24 27/43/24 28/44/24 29/45/24 30/46/24 
f 31/47/16 32/48/16 33/49/16 34/50/16 35/51/16 36/52/16 
f 26/53/25 37/54/26 38/55/27 27/56/28 
f 30/46/29 39/57/30 40/58/31 25/41/32 
f 28/59/33 41/60/34 42/61/35 29/62/36 
s 1
f 27/63/37 38/64/38 41/65/39 
s off
f 25/41/40 40/58/41 37/54/42 26/53/43 
f 29/62/44 42/61/45 39/57/46 30/46/47 
f 43/66/48 44/67/49 38/55/27 37/54/26 
f 45/68/50 46/69/51 40/58/31 39/57/30 
f 47/70/52 48/71/53 42/61/35 41/60/34 
s 2
f 38/64/38 47/72/54 41/65/39 
s off
f 46/69/55 43/66/56 37/54/42 40/58/41 
f 48/71/57 45/68/58 39/57/46 42/61/45 
f 34/73/59 44/67/49 43/66/48 35/74/60 
f 36/52/61 46/69/51 45/68/50 31/47/62 
f 32/75/63 48/71/53 47/70/52 33/76/64 
s 3
f 34/50/65 33/49/66 44/77/67 
s off
f 35/74/68 43/66/56 46/69/55 36/52/69 
f 31/47/70 45/68/58 48/71/57 32/75/71 
s 3
f 44/77/67 33/49/66 47/72/54 
s 2
f 38/64/38 44/77/67 47/72/54 
s 1
f 27/63/37 41/65/39 28/78/72 
s off
f 49/79/73 50/80/73 51/81/73 52/82/73 
f 53/83/74 54/84/74 50/80/74 49/79/74 
f 55/85/75 54/84/75 53/83/75 56/86/75 
f 52/82/76 51/81/76 57/87/76 58/88/76 
f 50/80/77 59/89/77 60/90/77 51/91/77 
f 54/84/78 61/92/78 59/89/78 50/80/78 
f 62/93/79 61/92/79 54/84/79 55/85/79 
f 57/94/80 51/91/80 60/90/80 63/95/80 
f 59/89/81 64/96/81 65/97/81 60/98/81 
f 61/92/82 66/99/82 64/96/82 59/89/82 
f 67/100/83 66/99/83 61/92/83 62/93/83 
f 60/98/84 65/97/84 68/101/84 63/102/84 
f 64/96/85 69/103/85 70/104/85 65/105/85 
f 66/99/86 71/106/86 69/103/86 64/96/86 
f 72/107/87 71/106/87 66/99/87 67/100/87 
f 65/105/88 70/104/88 73/108/88 68/109/88 
f 69/103/89 74/110/89 75/111/89 70/112/89 
f 71/106/90 76/113/90 74/110/90 69/103/90 
f 77/114/91 76/113/91 71/106/91 72/107/91 
f 73/115/92 70/112/92 75/111/92 78/116/92 
f 74/110/93 49/79/93 52/117/93 75/118/93 
f 76/113/94 53/83/94 49/79/94 74/110/94 
f 56/86/95 53/83/95 76/113/95 77/114/95 
f 75/118/96 52/117/96 58/119/96 78/120/96 
# 64 polygons - 10 triangles

