# 3ds Max Wavefront OBJ Exporter v0.97b - (c)2007 guruware
# File Created: 25.10.2016 20:02:02

mtllib Prop_Candle.mtl

#
# object initialShadingGroup_polySurface24
#

v  -2.3894 -1.0099 0.7354
v  -0.4610 -3.3081 0.7354
v  0.5651 -3.4890 1.7354
v  2.4934 -2.7871 0.7354
v  3.1632 -1.9890 1.7354
v  3.5195 0.0319 0.7354
v  3.1631 1.0110 1.7354
v  1.5912 2.3301 0.7354
v  0.5651 2.5110 1.7354
v  -1.3633 1.8091 0.7354
v  -2.0330 1.0110 1.7354
v  -2.0330 -1.9890 1.7354
v  0.7259 -2.3273 -0.1194
v  -0.9465 -1.5475 -0.1194
v  -1.1073 0.2908 -0.1194
v  0.4042 1.3493 -0.1194
v  2.0766 0.5694 -0.1194
v  2.2374 -1.2689 -0.1194
v  0.9708 0.6258 6.5994
v  -0.1975 0.4198 6.5994
v  -0.6033 -0.6950 6.5994
v  0.1593 -1.6038 6.5994
v  1.3276 -1.3978 6.5994
v  1.7334 -0.2830 6.5994
v  0.5651 -1.6754 1.7354
v  -0.4623 -1.0822 1.7354
v  1.5925 -1.0822 1.7354
v  1.5925 0.1042 1.7354
v  0.5651 0.6974 1.7354
v  -0.4623 0.1042 1.7354
v  0.5651 -0.4891 10.8899
v  -0.2390 -0.6308 9.8478
v  1.0899 -1.1145 9.8478
v  -0.3634 -0.6527 7.6023
v  0.2858 -1.2562 7.0006
v  1.1711 -1.2113 7.6023
v  0.8443 0.2782 9.8478
v  1.3692 -0.3472 7.0006
v  0.8875 0.3969 7.6023
v  0.0402 0.1365 7.0006
v  -0.2017 1.4456 1.3228
v  -0.3388 2.2936 -0.1501
v  0.8185 2.4809 -0.1501
v  0.9557 1.6329 1.3228
v  -0.5339 2.3563 0.9115
v  -0.3347 3.1269 0.4964
v  0.8731 2.5361 1.6961
v  0.7131 2.5987 0.8549
v  -0.6050 3.9381 -0.1210
v  0.5524 4.1254 -0.1210
v  0.5296 3.3400 0.5106
v  -0.8142 3.7724 0.9367
v  -0.7339 4.7347 1.3810
v  0.4234 4.9220 1.3810
v  -0.7901 3.7612 1.7922
v  0.5060 4.0189 1.0077
v  -0.5968 3.8868 2.8539
v  0.5606 4.0741 2.8539
v  -0.3918 3.0873 2.2074
v  0.6660 3.9563 1.8490
v  -0.3306 2.2423 2.8248
v  0.8267 2.4295 2.8249
v  -0.1358 2.4056 1.7670
v  0.8495 3.2149 2.1932
# 64 vertices

vn -0.8245 -0.0230 0.5654
vn -0.4072 -0.7788 0.4770
vn 0.1163 -0.8712 -0.4770
vn 0.3916 -0.8151 0.4270
vn 0.7669 -0.3036 -0.5654
vn 0.8245 0.0230 0.5654
vn 0.6468 0.6320 -0.4270
vn 0.4072 0.7788 0.4770
vn -0.1163 0.8712 -0.4770
vn -0.3916 0.8151 0.4270
vn -0.7669 0.3036 -0.5654
vn -0.6468 -0.6320 -0.4270
vn 0.0000 0.0000 -1.0000
vn 0.0000 0.0000 1.0000
vn -0.3274 -0.5193 -0.7894
vn -0.4924 0.0935 -0.8653
vn -0.1215 0.6036 -0.7880
vn 0.3274 0.5193 -0.7894
vn 0.4924 -0.0935 -0.8653
vn 0.1215 -0.6036 -0.7880
vn -0.5271 -0.8498 0.0000
vn 0.2046 -0.9788 0.0000
vn 0.9848 -0.1736 0.0000
vn 0.5271 0.8498 0.0000
vn -0.2046 0.9788 0.0000
vn -0.9848 0.1736 0.0000
vn -0.2714 -0.8896 0.3673
vn -0.5407 -0.8399 0.0472
vn -0.2888 -0.9467 0.1430
vn -0.0380 -0.9983 0.0442
vn 0.8408 0.2685 0.4701
vn 0.9771 -0.2031 0.0631
vn 0.9350 0.2986 0.1913
vn 0.7463 0.6636 0.0521
vn -0.4464 0.7873 0.4253
vn -0.1881 0.9810 0.0467
vn -0.4861 0.8573 0.1695
vn -0.8060 0.5889 0.0599
vn -0.6075 -0.1939 -0.7703
vn 0.2174 0.7125 -0.6671
vn 0.3375 -0.5953 -0.7292
vn 0.1370 -0.8461 -0.5151
vn -0.9724 -0.1600 -0.1700
vn -0.1350 0.8201 0.5561
vn 0.9736 0.2255 -0.0358
vn -0.0028 0.0172 -0.9998
vn -0.1015 -0.5985 0.7947
vn 0.0003 -0.0673 0.9977
vn 0.9664 0.2018 0.1591
vn -0.1397 0.8634 -0.4848
vn -0.9897 0.1147 -0.0851
vn 0.1412 -0.8822 0.4493
vn 0.9980 0.0452 0.0452
vn -0.1370 0.8461 0.5151
vn -0.9755 -0.1085 0.1912
vn 0.1309 -0.8209 -0.5558
vn 0.0028 -0.0172 0.9998
vn -0.9698 -0.1849 -0.1587
vn -0.0176 0.0605 -0.9980
vn 0.1397 -0.8634 0.4848
vn -0.9488 -0.3050 0.0828
vn -0.1447 0.8820 -0.4486
vn -0.9645 -0.1523 -0.2156
vn -0.3128 0.9454 0.0915
# 64 vertex normals

vt 0.5541 0.2667 0.0000
vt 0.5670 0.3284 0.0000
vt 0.5456 0.3500 0.0000
vt 0.5750 0.3576 0.0000
vt 0.5280 0.3997 0.0000
vt 0.4987 0.3920 0.0000
vt 0.5067 0.4213 0.0000
vt 0.4468 0.4016 0.0000
vt 0.4388 0.3723 0.0000
vt 0.4174 0.3939 0.0000
vt 0.4045 0.3322 0.0000
vt 0.4259 0.3106 0.0000
vt 0.3965 0.3029 0.0000
vt 0.4435 0.2609 0.0000
vt 0.4729 0.2686 0.0000
vt 0.4648 0.2393 0.0000
vt 0.5247 0.2590 0.0000
vt 0.5327 0.2883 0.0000
vt 0.3269 0.4052 0.0000
vt 0.3088 0.3708 0.0000
vt 0.3295 0.3380 0.0000
vt 0.3683 0.3395 0.0000
vt 0.3863 0.3738 0.0000
vt 0.3657 0.4066 0.0000
vt 0.3399 0.3064 0.0000
vt 0.2905 0.3069 0.0000
vt 0.2653 0.2644 0.0000
vt 0.2896 0.2213 0.0000
vt 0.3390 0.2208 0.0000
vt 0.3642 0.2634 0.0000
vt 0.6032 0.3210 0.0000
vt 0.5365 0.2239 0.0000
vt 0.3983 0.2660 0.0000
vt 0.4190 0.2331 0.0000
vt 0.4350 0.4367 0.0000
vt 0.5525 0.4274 0.0000
vt 0.5094 0.3381 0.0000
vt 0.5043 0.3137 0.0000
vt 0.4909 0.3547 0.0000
vt 0.4672 0.3469 0.0000
vt 0.4621 0.3225 0.0000
vt 0.4807 0.3059 0.0000
vt 0.2402 0.2218 0.0000
vt 0.3007 0.0181 0.0000
vt 0.3502 0.0177 0.0000
vt 0.3996 0.0172 0.0000
vt 0.3885 0.2203 0.0000
vt 0.4491 0.0167 0.0000
vt 0.4379 0.2198 0.0000
vt 0.1413 0.2228 0.0000
vt 0.2018 0.0191 0.0000
vt 0.1907 0.2223 0.0000
vt 0.2513 0.0186 0.0000
vt 0.5852 0.2867 0.0000
vt 0.5732 0.3946 0.0000
vt 0.4738 0.4382 0.0000
vt 0.4977 0.2224 0.0000
vt 0.1524 0.0196 0.0000
vt 0.1591 0.4233 0.0000
vt 0.1329 0.3738 0.0000
vt 0.1853 0.3733 0.0000
vt 0.1229 0.2778 0.0000
vt 0.1571 0.2447 0.0000
vt 0.1944 0.2776 0.0000
vt 0.2369 0.3980 0.0000
vt 0.2369 0.2548 0.0000
vt 0.2679 0.2945 0.0000
vt 0.0812 0.3979 0.0000
vt 0.0516 0.2937 0.0000
vt 0.0833 0.2549 0.0000
vt 0.0178 0.2587 0.0000
vt 0.0381 0.1954 0.0000
vt 0.0604 0.0457 0.0000
vt 0.0603 0.0166 0.0000
vt 0.0803 0.0166 0.0000
vt 0.0804 0.0457 0.0000
vt 0.0192 0.1175 0.0000
vt 0.0258 0.1297 0.0000
vt 0.0094 0.1354 0.0000
vt 0.0078 0.1036 0.0000
vt 0.1140 0.1115 0.0000
vt 0.1188 0.1051 0.0000
vt 0.1257 0.1219 0.0000
vt 0.1198 0.1215 0.0000
vt 0.1362 0.1044 0.0000
vt 0.1356 0.1373 0.0000
vt 0.0769 0.1917 0.0000
vt 0.0569 0.1907 0.0000
vt 0.0583 0.1623 0.0000
vt 0.0783 0.1633 0.0000
vt 0.1152 0.1367 0.0000
vt 0.1150 0.1298 0.0000
vt 0.1074 0.1530 0.0000
vt 0.0598 0.1332 0.0000
vt 0.0797 0.1342 0.0000
vt 0.0414 0.1312 0.0000
vt 0.0493 0.1187 0.0000
vt 0.0346 0.1486 0.0000
vt 0.0973 0.1346 0.0000
vt 0.1049 0.1286 0.0000
vt 0.0605 0.1033 0.0000
vt 0.0806 0.1032 0.0000
vt 0.0425 0.1054 0.0000
vt 0.0902 0.1175 0.0000
vt 0.0996 0.1199 0.0000
vt 0.0604 0.0748 0.0000
vt 0.0805 0.0748 0.0000
vt 0.0295 0.1052 0.0000
vt 0.0328 0.0878 0.0000
vt 0.1014 0.1033 0.0000
vt 0.1045 0.1115 0.0000
vt 0.1084 0.0870 0.0000
# 112 texture coords

g initialShadingGroup_polySurface24
usemtl _Prop_Candledefault
s 1
f 1/1/1 2/2/2 3/3/3 
s 2
f 2/4/2 4/5/4 5/6/5 
s 3
f 4/7/4 6/8/6 7/9/7 
s 4
f 6/10/6 8/11/8 9/12/9 
s 5
f 8/13/8 10/14/10 11/15/11 
s 6
f 10/16/10 1/17/1 12/18/12 
s off
f 13/19/13 14/20/13 15/21/13 16/22/13 17/23/13 18/24/13 
f 19/25/14 20/26/14 21/27/14 22/28/14 23/29/14 24/30/14 
s 7
f 2/2/15 1/1/15 13/31/15 
s 8
f 1/17/16 10/16/16 14/32/16 
s off
f 10/14/17 8/13/17 16/33/17 15/34/17 
s 9
f 8/11/18 6/10/18 16/22/18 
s 10
f 6/8/19 4/7/19 17/35/19 
s 11
f 4/5/20 2/4/20 18/36/20 
s off
f 3/3/14 25/37/14 26/38/14 12/18/14 
f 5/6/14 27/39/14 25/37/14 3/3/14 
f 7/9/14 28/40/14 27/39/14 5/6/14 
f 9/12/14 29/41/14 28/40/14 7/9/14 
f 11/15/14 30/42/14 29/41/14 9/12/14 
f 12/18/14 26/38/14 30/42/14 11/15/14 
s 12
f 21/43/21 25/44/21 22/28/21 
s 13
f 22/28/22 27/45/22 23/29/22 
s 14
f 23/29/23 28/46/23 24/47/23 
s 15
f 24/47/24 29/48/24 19/49/24 
s 16
f 19/50/25 30/51/25 20/52/25 
s 17
f 20/52/26 26/53/26 21/43/26 
s 1
f 1/1/1 3/3/3 12/18/12 
s 6
f 10/16/10 12/18/12 11/15/11 
s 5
f 8/13/8 11/15/11 9/12/9 
s 4
f 6/10/6 9/12/9 7/9/7 
s 3
f 4/7/4 7/9/7 5/6/5 
s 2
f 2/4/2 5/6/5 3/3/3 
s 7
f 13/31/15 1/1/15 14/54/15 
s 11
f 18/36/20 2/4/20 13/55/20 
s 10
f 17/35/19 4/7/19 18/56/19 
s 9
f 16/22/18 6/10/18 17/23/18 
s 8
f 14/32/16 10/16/16 15/57/16 
s 12
f 26/53/21 25/44/21 21/43/21 
s 13
f 25/44/22 27/45/22 22/28/22 
s 14
f 27/45/23 28/46/23 23/29/23 
s 15
f 28/46/24 29/48/24 24/47/24 
s 16
f 29/58/25 30/51/25 19/50/25 
s 17
f 30/51/26 26/53/26 20/52/26 
s off
f 31/59/27 32/60/27 33/61/27 
f 32/60/28 34/62/28 35/63/28 
f 32/60/29 35/63/29 33/61/29 
f 33/61/30 35/63/30 36/64/30 
f 31/59/31 33/61/31 37/65/31 
f 33/61/32 36/64/32 38/66/32 
f 33/61/33 38/66/33 37/65/33 
f 37/65/34 38/66/34 39/67/34 
f 31/59/35 37/68/35 32/60/35 
f 37/68/36 39/69/36 40/70/36 
f 37/68/37 40/70/37 32/60/37 
f 32/60/38 40/70/38 34/62/38 
f 34/62/39 40/70/39 35/63/39 
f 40/70/40 39/69/40 38/71/40 
f 40/70/13 38/71/13 35/72/13 
f 35/63/41 38/66/41 36/64/41 
f 41/73/42 42/74/42 43/75/42 44/76/42 
f 45/77/43 46/78/43 42/79/43 41/80/43 
f 45/81/44 47/82/44 48/83/44 46/84/44 
f 44/85/45 43/86/45 48/83/45 47/82/45 
f 43/87/46 42/88/46 42/88/46 
f 43/87/46 42/88/46 49/89/46 50/90/46 
f 42/79/47 42/79/47 
f 46/84/48 48/83/48 51/91/48 52/92/48 
f 43/86/49 50/93/49 51/91/49 48/83/49 
f 49/89/50 53/94/50 54/95/50 50/90/50 
f 52/96/51 55/97/51 53/94/51 49/98/51 
f 52/92/52 51/91/52 56/99/52 55/100/52 
f 50/93/53 54/95/53 56/99/53 51/91/53 
f 53/94/54 57/101/54 58/102/54 54/95/54 
f 55/97/55 59/103/55 57/101/55 53/94/55 
f 55/100/56 56/99/56 60/104/56 59/105/56 
f 54/95/45 58/102/45 60/104/45 56/99/45 
f 57/101/57 61/106/57 62/107/57 58/102/57 
f 59/103/58 63/108/58 61/109/58 57/101/58 
f 59/105/59 60/104/59 64/110/59 63/111/59 
f 58/102/49 62/112/49 64/110/49 60/104/49 
f 61/106/60 41/73/60 44/76/60 62/107/60 
f 61/109/61 45/77/61 41/80/61 
f 63/111/62 64/110/62 47/82/62 45/81/62 
f 62/112/53 44/85/53 47/82/53 64/110/53 
f 52/96/63 49/98/63 42/79/63 
f 61/109/64 63/108/64 45/77/64 
# 32 polygons - 54 triangles

