# 3ds Max Wavefront OBJ Exporter v0.97b - (c)2007 guruware
# File Created: 25.10.2016 20:06:03

mtllib Prop_Scythe.mtl

#
# object Prop_Scythe1_GeoSphere001_Prop_Scythe1_initialShadingGroup_initialShadingGroup_polySurface27_polySurface25_polySurface21
#

v  0.0915 -5.6188 11.3272
v  -0.1280 -6.1321 9.9363
v  -0.1280 -5.3641 7.0917
v  0.8344 -1.1526 3.8555
v  -0.1280 -1.2381 -0.0182
v  1.2808 -0.0799 0.2316
v  1.4988 1.2892 2.3124
v  -1.1619 -0.7451 4.2313
v  -0.3635 -5.6490 11.7191
v  -0.1280 2.0517 2.1973
v  -1.7548 1.3355 2.3551
v  -1.5368 -0.0764 0.2349
v  -0.8341 -9.7792 20.5347
v  -0.7020 -10.0974 24.5153
v  -1.1698 -10.1778 24.1304
v  -1.2144 -9.5798 24.6201
v  -4.4796 -15.0794 52.7918
v  -4.3160 -18.6353 49.7396
v  -2.5995 -18.3399 51.1523
v  -2.1344 -12.5215 33.0064
v  -2.1790 -11.5525 33.8381
v  -1.6666 -12.4410 33.3913
v  -4.6229 -15.5784 41.3730
v  -4.7270 -13.3159 43.3150
v  -3.5308 -15.3904 42.2718
v  -4.0449 -15.6821 42.3788
v  -3.0606 -18.2160 50.2427
v  -3.9530 -18.3697 49.5082
v  -0.4850 -24.2287 44.0784
v  -1.4694 -22.9006 39.8769
v  -1.3774 -24.3822 43.3440
v  3.3312 -33.1887 31.3616
v  1.5863 -30.1641 30.7820
v  2.7866 -33.2825 30.9134
v  3.6641 -33.9601 21.9388
v  -4.1816 -14.4636 44.3050
v  -3.9176 -14.9214 44.0748
v  -4.0090 -15.6937 50.9158
v  -3.2680 -16.9788 50.2696
v  -4.3972 -8.7186 52.2730
# 40 vertices

vn 0.9565 -0.2309 -0.1782
vn 0.5034 -0.5153 -0.6936
vn 0.9883 -0.1236 0.0896
vn 0.9829 -0.1800 0.0402
vn 0.2063 0.5644 0.7993
vn 0.0966 0.3369 0.9365
vn 0.1492 0.3453 0.9266
vn -0.1210 0.4083 0.9047
vn -0.9599 -0.2205 -0.1734
vn -0.9832 -0.1772 0.0440
vn -0.9883 -0.1350 0.0709
vn -0.5050 -0.5147 -0.6928
vn -0.0005 -0.0279 -0.9996
vn -0.3763 0.4823 -0.7911
vn 0.0000 0.3127 -0.9498
vn 0.3843 0.4848 -0.7856
vn 0.2569 -0.8778 -0.4044
vn 0.9476 -0.2742 -0.1638
vn 0.4804 0.6241 0.6162
vn -0.9789 -0.0862 -0.1853
vn -0.3701 -0.2759 0.8871
vn -0.9851 -0.0002 -0.1720
vn 0.3160 -0.7662 -0.5596
vn 0.7688 0.4386 0.4654
vn -0.9273 0.0705 -0.3675
vn 0.3244 -0.7454 -0.5824
vn 0.7730 0.3145 0.5509
vn -0.9989 -0.0447 0.0140
vn 0.3541 -0.6554 -0.6671
vn 0.9498 0.3110 0.0334
vn -0.3296 -0.4493 0.8303
vn -0.9316 -0.2649 -0.2488
vn 0.9223 0.3856 -0.0272
vn -0.2842 -0.5899 0.7558
vn -0.9382 -0.2786 -0.2054
vn 0.9020 0.4204 0.0981
vn 0.1262 -0.9880 -0.0888
vn -0.9306 -0.3088 -0.1968
vn 0.8859 0.4046 0.2268
vn 0.6814 0.3972 -0.6148
vn -0.9989 -0.0443 0.0142
vn 0.3166 0.0504 0.9472
vn 0.9919 0.1091 -0.0649
# 43 vertex normals

vt 0.8598 0.9014 0.0000
vt 0.8695 0.8927 0.0000
vt 0.8948 0.8891 0.0000
vt 0.9358 0.9122 0.0000
vt 0.9662 0.8917 0.0000
vt 0.9682 0.9086 0.0000
vt 0.9602 0.9237 0.0000
vt 0.9290 0.9292 0.0000
vt 0.8561 0.9051 0.0000
vt 0.9567 0.9393 0.0000
vt 0.9440 0.9476 0.0000
vt 0.0828 0.8941 0.0000
vt 0.1084 0.8936 0.0000
vt 0.1224 0.9017 0.0000
vt 0.0489 0.9282 0.0000
vt 0.0286 0.9426 0.0000
vt 0.0136 0.9262 0.0000
vt 0.0132 0.9101 0.0000
vt 0.9777 0.9061 0.0000
vt 0.9829 0.9154 0.0000
vt 0.9797 0.9299 0.0000
vt 0.9695 0.9284 0.0000
vt 0.2056 0.8866 0.0000
vt 0.2398 0.8870 0.0000
vt 0.2368 0.8913 0.0000
vt 0.7385 0.9010 0.0000
vt 0.7721 0.8921 0.0000
vt 0.7388 0.9073 0.0000
vt 0.2394 0.8975 0.0000
vt 0.4882 0.9390 0.0000
vt 0.4750 0.9005 0.0000
vt 0.4942 0.9039 0.0000
vt 0.3167 0.8955 0.0000
vt 0.3206 0.9059 0.0000
vt 0.3191 0.8908 0.0000
vt 0.6568 0.9164 0.0000
vt 0.6584 0.9068 0.0000
vt 0.3976 0.8982 0.0000
vt 0.4059 0.9227 0.0000
vt 0.4019 0.8866 0.0000
vt 0.5718 0.9333 0.0000
vt 0.5756 0.9109 0.0000
vt 0.4425 0.8301 0.0000
vt 0.4547 0.8323 0.0000
vt 0.4509 0.8358 0.0000
vt 0.4872 0.8984 0.0000
vt 0.4772 0.8966 0.0000
vt 0.5021 0.8970 0.0000
vt 0.4634 0.8303 0.0000
vt 0.5451 0.8238 0.0000
vt 0.5665 0.8591 0.0000
vt 0.4659 0.8195 0.0000
vt 0.5481 0.8136 0.0000
vt 0.4921 0.7524 0.0000
vt 0.5624 0.7822 0.0000
vt 0.6832 0.8167 0.0000
vt 0.6767 0.8471 0.0000
vt 0.6858 0.8110 0.0000
vt 0.6720 0.7850 0.0000
vt 0.7681 0.8069 0.0000
vt 0.5608 0.9247 0.0000
vt 0.5616 0.9197 0.0000
vt 0.5025 0.9287 0.0000
vt 0.5048 0.9148 0.0000
vt 0.8721 0.8724 0.0000
vt 0.8659 0.8711 0.0000
vt 0.7951 0.7914 0.0000
vt 0.7929 0.8686 0.0000
vt 0.7842 0.8839 0.0000
vt 0.7145 0.8689 0.0000
# 70 texture coords

g Prop_Scythe1_GeoSphere001_Prop_Scythe1_initialShadingGroup_initialShadingGroup_polySurface27_polySurface25_polySurface21
usemtl _Prop_Scythe_Prop_Scythedefault
s off
f 1/1/1 2/2/1 3/3/1 4/4/1 
f 3/3/2 5/5/2 6/6/2 
f 3/3/3 6/6/3 4/4/3 
f 4/4/4 6/6/4 7/7/4 
f 8/8/5 9/9/5 1/1/5 4/4/5 
f 4/4/6 7/7/6 10/10/6 
f 4/4/7 10/10/7 8/8/7 
f 8/8/8 10/10/8 11/11/8 
f 3/12/9 2/13/9 9/14/9 8/15/9 
f 8/15/10 11/16/10 12/17/10 
f 8/15/11 12/17/11 3/12/11 
f 3/12/12 12/17/12 5/18/12 
f 5/19/13 12/20/13 6/6/13 
f 12/20/14 11/21/14 10/22/14 
f 12/20/15 10/22/15 6/6/15 
f 6/6/16 10/22/16 7/7/16 
f 13/23/17 14/24/17 15/25/17 
f 1/1/18 14/26/18 13/27/18 2/2/18 
f 9/9/19 16/28/19 14/26/19 1/1/19 
f 9/14/20 2/13/20 13/23/20 15/25/20 16/29/20 
f 17/30/21 18/31/21 19/32/21 
f 16/29/22 15/25/22 20/33/22 21/34/22 
f 14/24/23 22/35/23 20/33/23 15/25/23 
f 16/28/24 21/36/24 22/37/24 14/26/24 
f 21/34/25 20/33/25 23/38/25 24/39/25 
f 22/35/26 25/40/26 23/38/26 20/33/26 
f 21/36/27 24/41/27 25/42/27 22/37/27 
f 24/39/28 23/38/28 18/31/28 17/30/28 
f 23/43/29 25/44/29 26/45/29 
f 25/44/29 19/32/29 27/46/29 26/45/29 
f 18/31/29 28/47/29 27/46/29 19/32/29 
f 18/31/29 23/43/29 26/45/29 28/47/29 
f 26/48/30 27/49/30 29/50/30 30/51/30 
f 28/52/31 31/53/31 29/50/31 27/49/31 
f 26/54/32 30/55/32 31/53/32 28/52/32 
f 30/51/33 29/50/33 32/56/33 33/57/33 
f 31/53/34 34/58/34 32/56/34 29/50/34 
f 31/53/35 30/55/35 33/59/35 34/58/35 
f 33/57/36 32/56/36 35/60/36 
f 32/56/37 34/58/37 35/60/37 
f 34/58/38 33/59/38 35/60/38 
f 24/41/39 36/61/39 37/62/39 25/42/39 
f 24/41/39 17/30/39 38/63/39 36/61/39 
f 19/32/39 39/64/39 38/63/39 17/30/39 
f 19/32/39 25/42/39 37/62/39 39/64/39 
f 37/65/40 36/66/40 40/67/40 
f 36/66/41 38/68/41 40/67/41 
f 38/68/42 39/69/42 40/67/42 
f 39/69/43 37/70/43 40/67/43 
# 26 polygons - 23 triangles

