# This file uses centimeters as units for non-parametric coordinates.

mtllib Prop_Lantern.mtl
g default
v -2.039100 9.120338 -2.067200
v -0.584400 9.120338 -2.067200
v -0.584400 7.274438 -1.033500
v -2.039100 7.274438 -1.033500
v -0.357900 8.589438 -0.895000
v -0.754700 8.058638 0.000200
v -2.117000 9.563838 -0.936600
v -1.933400 8.518338 -0.846500
v -0.584400 7.274438 1.033900
v -2.039100 7.274438 1.033900
v -0.295300 8.589438 0.895400
v -1.855500 8.074738 0.090300
v -0.584400 9.120338 2.067600
v -2.039100 9.120338 2.067600
v -0.322700 9.651138 0.895400
v -1.961200 8.676738 0.937100
v -0.584400 10.966238 1.033900
v -2.039100 10.966238 1.033900
v -0.676900 10.182038 0.000200
v -2.144800 9.722338 0.847000
v -0.584400 10.966238 -1.033500
v -2.039100 10.966238 -1.033500
v -0.855400 9.651138 -0.895000
v -2.222700 10.165838 -0.089900
v 1.111500 0.791638 -0.911700
v 1.111500 0.274138 0.961700
v 0.093000 0.009438 1.919800
v -2.916700 0.009438 1.919800
v -2.916700 1.056338 -1.869800
v 0.093000 1.056338 -1.869800
v 1.111500 7.274438 0.994700
v 1.111500 7.274438 -0.944700
v 0.093000 7.274438 -1.936700
v -2.916700 7.274438 -1.936700
v -2.916700 7.274438 1.986700
v 0.093000 7.274438 1.986700
v 0.487200 3.084138 1.253700
v -1.792300 3.369138 2.013000
v 0.428900 2.204838 -1.089600
v 0.977800 2.722838 0.290800
v -2.902800 2.321338 -0.779300
v -0.623200 2.036338 -1.538600
v -0.492200 4.414138 2.223200
v -3.059200 4.720538 1.086200
v 1.105000 5.008338 -0.382000
v 0.622900 4.546638 1.648900
v -2.084000 5.654638 -2.092300
v 0.483000 5.348238 -1.414800
v 1.551900 3.125238 -2.308100
v 2.551500 3.125238 -2.308100
v 2.551500 1.751338 0.000000
v 1.551900 1.751338 0.000000
v 2.940800 3.172538 -0.887300
v 2.661800 3.031338 0.653800
v 0.762500 3.689338 -1.360300
v 0.762500 2.879638 0.000000
v 0.638100 3.689338 -1.360300
v 0.638100 2.879638 0.000000
v 2.551500 3.125238 2.308100
v 1.551900 3.125238 2.308100
v 2.501200 4.357938 1.541000
v 0.762500 3.689338 1.360300
v 0.638100 3.689338 1.360300
v 2.551500 5.873038 2.308100
v 1.551900 5.873038 2.308100
v 2.619600 5.825638 0.887300
v 0.762500 5.308838 1.360300
v 0.638100 5.308838 1.360300
v 2.551500 7.246938 0.000000
v 1.551900 7.246938 0.000000
v 2.898600 5.966838 -0.653800
v 0.762500 6.118538 0.000000
v 0.638100 6.118538 0.000000
v 2.551500 5.873038 -2.308100
v 1.551900 5.873038 -2.308100
v 3.059200 4.640238 -1.541000
v 0.762500 5.308838 -1.360300
v 0.638100 5.308838 -1.360300
vt 0.715547 0.338126
vt 0.716044 0.375980
vt 0.660993 0.376707
vt 0.660493 0.338852
vt 0.826628 0.474212
vt 0.852600 0.452282
vt 0.875517 0.439595
vt 0.886721 0.470545
vt 0.839261 0.273194
vt 0.827162 0.264279
vt 0.858756 0.250833
vt 0.858005 0.262048
vt 0.825403 0.231436
vt 0.887639 0.231750
vt 0.991680 0.341665
vt 0.990224 0.379492
vt 0.990221 0.379492
vt 0.936459 0.377419
vt 0.937922 0.339595
vt 0.878113 0.410014
vt 0.886724 0.470547
vt 0.886945 0.270378
vt 0.873875 0.270888
vt 0.917911 0.284817
vt 0.881422 0.375185
vt 0.882928 0.337505
vt 0.911055 0.422496
vt 0.854183 0.395410
vt 0.883271 0.304313
vt 0.871736 0.290142
vt 0.824913 0.374607
vt 0.824375 0.336597
vt 0.829286 0.408503
vt 0.851176 0.317995
vt 0.855480 0.300278
vt 0.771093 0.375262
vt 0.770602 0.337404
vt 0.829181 0.433131
vt 0.796144 0.427311
vt 0.824123 0.297282
vt 0.839429 0.291191
vt 0.793038 0.284247
vt 0.898326 0.138046
vt 0.910706 0.102533
vt 0.936819 0.089812
vt 0.995164 0.109082
vt 0.969239 0.184766
vt 0.911315 0.164722
vt 0.760663 0.099413
vt 0.760115 0.138363
vt 0.739152 0.158400
vt 0.677761 0.157840
vt 0.678763 0.077875
vt 0.740101 0.078706
vt 0.917292 0.076743
vt 0.851708 0.087140
vt 0.854632 0.034996
vt 0.921551 0.017593
vt 0.867798 0.144028
vt 0.859109 0.110580
vt 0.898216 0.217521
vt 0.864713 0.217278
vt 0.871756 0.169216
vt 0.894466 0.159637
vt 0.514199 0.100141
vt 0.585149 0.086423
vt 0.567767 0.148941
vt 0.819638 0.063388
vt 0.823284 0.006947
vt 0.807028 0.129169
vt 0.816907 0.087671
vt 0.793393 0.207995
vt 0.800144 0.153617
vt 0.641079 0.164430
vt 0.761827 0.070658
vt 0.767420 0.008842
vt 0.760845 0.226104
vt 0.759720 0.165714
vt 0.626380 0.095569
vt 0.544912 0.174188
vt 0.718232 0.221510
vt 0.712811 0.234858
vt 0.674872 0.213124
vt 0.683156 0.202078
vt 0.691362 0.233944
vt 0.662823 0.230386
vt 0.684526 0.250117
vt 0.672122 0.242010
vt 0.720034 0.201024
vt 0.700005 0.190175
vt 0.666011 0.201748
vt 0.636866 0.235067
vt 0.631530 0.222336
vt 0.645378 0.254625
vt 0.659292 0.249522
vt 0.648550 0.190290
vt 0.629073 0.202168
vt 0.622596 0.237117
vt 0.637045 0.279989
vt 0.623341 0.278284
vt 0.658143 0.281864
vt 0.659056 0.264671
vt 0.604190 0.246413
vt 0.604830 0.269785
vt 0.631729 0.293390
vt 0.675212 0.301587
vt 0.666959 0.312653
vt 0.687089 0.283513
vt 0.671383 0.272580
vt 0.630057 0.313898
vt 0.650160 0.324638
vt 0.684091 0.312937
vt 0.712990 0.279525
vt 0.718426 0.292217
vt 0.702713 0.259892
vt 0.684068 0.265252
vt 0.701585 0.324323
vt 0.720997 0.312365
vt 0.727253 0.277553
vt 0.726528 0.236493
vt 0.745660 0.268307
vt 0.745039 0.244961
vn 0.000000 -0.500011 -0.866019
vn 0.000000 -0.500011 -0.866019
vn 0.000000 -0.500011 -0.866019
vn 0.000000 -0.500011 -0.866019
vn 0.985444 -0.169908 -0.005600
vn 0.985444 -0.169908 -0.005600
vn 0.985444 -0.169908 -0.005600
vn 0.985444 -0.169908 -0.005600
vn 0.002200 0.541499 0.840699
vn 0.002200 0.541499 0.840699
vn 0.002200 0.541499 0.840699
vn 0.002200 0.541499 0.840699
vn -0.997107 -0.037000 0.066400
vn -0.997107 -0.037000 0.066400
vn -0.997107 -0.037000 0.066400
vn -0.997107 -0.037000 0.066400
vn 0.000000 -1.000000 0.000000
vn 0.000000 -1.000000 0.000000
vn 0.000000 -1.000000 0.000000
vn 0.000000 -1.000000 0.000000
vn 0.000000 -1.000000 0.000000
vn 0.195801 0.804604 -0.560602
vn 0.195801 0.804604 -0.560602
vn 0.195801 0.804604 -0.560602
vn 0.195801 0.804604 -0.560602
vn 0.010400 0.998740 -0.049102
vn 0.010400 0.998740 -0.049102
vn 0.010400 0.998740 -0.049102
vn 0.010400 0.998740 -0.049102
vn -0.986242 0.158307 0.047602
vn -0.986242 0.158307 0.047602
vn -0.986242 0.158307 0.047602
vn -0.986242 0.158307 0.047602
vn 0.000000 -0.500011 0.866019
vn 0.000000 -0.500011 0.866019
vn 0.000000 -0.500011 0.866019
vn 0.000000 -0.500011 0.866019
vn 0.958718 -0.089802 0.269805
vn 0.958718 -0.089802 0.269805
vn 0.958718 -0.089802 0.269805
vn 0.958718 -0.089802 0.269805
vn 0.001500 0.464806 -0.885411
vn 0.001500 0.464806 -0.885411
vn 0.001500 0.464806 -0.885411
vn 0.001500 0.464806 -0.885411
vn -0.992360 0.047198 -0.113995
vn -0.992360 0.047198 -0.113995
vn -0.992360 0.047198 -0.113995
vn -0.992360 0.047198 -0.113995
vn 0.000000 0.500011 0.866019
vn 0.000000 0.500011 0.866019
vn 0.000000 0.500011 0.866019
vn 0.000000 0.500011 0.866019
vn 0.980341 0.190308 0.052102
vn 0.980341 0.190308 0.052102
vn 0.980341 0.190308 0.052102
vn 0.980341 0.190308 0.052102
vn 0.001900 -0.541196 -0.840894
vn 0.001900 -0.541196 -0.840894
vn 0.001900 -0.541196 -0.840894
vn 0.001900 -0.541196 -0.840894
vn -0.997107 -0.037000 0.066400
vn -0.997107 -0.037000 0.066400
vn -0.997107 -0.037000 0.066400
vn -0.997107 -0.037000 0.066400
vn 0.000000 1.000000 0.000000
vn 0.000000 1.000000 0.000000
vn 0.000000 1.000000 0.000000
vn 0.000000 1.000000 0.000000
vn 0.986938 -0.158206 -0.030401
vn 0.986938 -0.158206 -0.030401
vn 0.986938 -0.158206 -0.030401
vn 0.986938 -0.158206 -0.030401
vn 0.007700 -0.998953 0.045098
vn 0.007700 -0.998953 0.045098
vn 0.007700 -0.998953 0.045098
vn 0.007700 -0.998953 0.045098
vn -0.986242 0.158307 0.047602
vn -0.986242 0.158307 0.047602
vn -0.986242 0.158307 0.047602
vn -0.986242 0.158307 0.047602
vn 0.000000 0.500011 -0.866019
vn 0.000000 0.500011 -0.866019
vn 0.000000 0.500011 -0.866019
vn 0.000000 0.500011 -0.866019
vn 0.985293 0.085399 -0.147999
vn 0.985293 0.085399 -0.147999
vn 0.985293 0.085399 -0.147999
vn 0.002000 -0.464092 0.885785
vn 0.002000 -0.464092 0.885785
vn 0.002000 -0.464092 0.885785
vn 0.002000 -0.464092 0.885785
vn -0.992360 0.047198 -0.113995
vn -0.992360 0.047198 -0.113995
vn -0.992360 0.047198 -0.113995
vn -0.992360 0.047198 -0.113995
vn 0.976483 -0.215596 0.000000
vn 0.976483 -0.215596 0.000000
vn 0.976483 -0.215596 0.000000
vn 0.157796 0.074298 0.984673
vn 0.157796 0.074298 0.984673
vn 0.157796 0.074298 0.984673
vn 0.000000 -0.965929 -0.258808
vn 0.000000 -0.965929 -0.258808
vn 0.000000 -0.965929 -0.258808
vn 0.000000 -0.965929 -0.258808
vn 0.000000 -0.965929 -0.258808
vn 0.000000 -0.965929 -0.258808
vn 0.000000 1.000000 0.000000
vn 0.000000 1.000000 0.000000
vn 0.000000 1.000000 0.000000
vn 0.000000 1.000000 0.000000
vn 0.000000 1.000000 0.000000
vn 0.000000 1.000000 0.000000
vn 0.134706 0.047602 0.989742
vn 0.317398 -0.051500 0.946893
vn -0.022900 0.045101 0.998720
vn 0.000000 -0.028600 0.999591
vn 0.970601 0.174100 -0.166200
vn 0.896795 0.168999 -0.408898
vn 0.988018 0.021000 -0.152903
vn 0.998119 0.059201 0.015900
vn -0.127105 0.579321 -0.805129
vn -0.294812 0.199308 -0.934538
vn -0.081496 0.170092 -0.982053
vn 0.000000 0.329009 -0.944327
vn -0.961430 0.213907 0.172905
vn -0.995139 0.028701 0.094204
vn -0.967407 0.201701 0.153101
vn 0.740990 0.094099 0.664891
vn 0.902687 0.059999 0.426094
vn 0.811548 -0.106306 0.574534
vn 0.682799 0.074500 0.726798
vn 0.539811 0.370808 -0.755715
vn 0.360704 0.225102 -0.905109
vn 0.528598 0.140300 -0.837197
vn 0.705025 0.256109 -0.661323
vn -0.169506 -0.059402 0.983737
vn -0.257201 0.010200 0.966304
vn -0.022900 0.045101 0.998720
vn 0.317398 -0.051500 0.946893
vn 0.988207 0.013800 0.152501
vn 0.983868 -0.019799 0.177794
vn 0.988018 0.021000 -0.152903
vn 0.896795 0.168999 -0.408898
vn 0.176501 0.074101 -0.981507
vn 0.180701 -0.077200 -0.980504
vn -0.081496 0.170092 -0.982053
vn -0.294812 0.199308 -0.934538
vn -0.995139 0.028701 0.094204
vn -0.980859 -0.187592 -0.052198
vn -0.967407 0.201701 0.153101
vn 0.523498 -0.066900 0.849397
vn 0.521409 -0.079301 0.849614
vn 0.811548 -0.106306 0.574534
vn 0.902687 0.059999 0.426094
vn 0.834502 -0.010700 -0.550901
vn 0.830417 -0.066901 -0.553111
vn 0.528598 0.140300 -0.837197
vn 0.360704 0.225102 -0.905109
vn -0.213202 -0.089401 0.972909
vn 0.000000 -0.341703 0.939808
vn -0.257201 0.010200 0.966304
vn -0.169506 -0.059402 0.983737
vn 0.991800 -0.083900 0.096400
vn 0.984211 -0.177002 0.000000
vn 0.983868 -0.019799 0.177794
vn 0.988207 0.013800 0.152501
vn 0.157907 0.004100 -0.987446
vn 0.000000 -0.269010 -0.963137
vn 0.180701 -0.077200 -0.980504
vn 0.176501 0.074101 -0.981507
vn -0.983072 -0.049899 -0.176295
vn -0.888593 -0.458696 0.000000
vn -0.833306 -0.413503 -0.366902
vn 0.646375 -0.026199 0.762570
vn 0.704566 -0.084696 0.704566
vn 0.521409 -0.079301 0.849614
vn 0.523498 -0.066900 0.849397
vn 0.754476 -0.118296 -0.645579
vn 0.695543 -0.180111 -0.695543
vn 0.830417 -0.066901 -0.553111
vn 0.834502 -0.010700 -0.550901
vn -0.980859 -0.187592 -0.052198
vn -0.833306 -0.413503 -0.366902
vn -0.999958 0.008900 0.002400
vn 0.000000 -0.866019 -0.500011
vn 0.000000 -0.866019 -0.500011
vn 0.000000 -0.866019 -0.500011
vn 0.000000 -0.866019 -0.500011
vn 0.955727 -0.291008 -0.043601
vn 0.955727 -0.291008 -0.043601
vn 0.955727 -0.291008 -0.043601
vn 0.955727 -0.291008 -0.043601
vn -0.000900 0.953020 0.302906
vn -0.000900 0.953020 0.302906
vn -0.000900 0.953020 0.302906
vn -0.000900 0.953020 0.302906
vn -0.728992 -0.592794 -0.342296
vn -0.728992 -0.592794 -0.342296
vn -0.728992 -0.592794 -0.342296
vn -0.728992 -0.592794 -0.342296
vn 0.000000 -0.866019 0.500011
vn 0.000000 -0.866019 0.500011
vn 0.000000 -0.866019 0.500011
vn 0.000000 -0.866019 0.500011
vn 0.997607 -0.020900 0.065900
vn 0.997607 -0.020900 0.065900
vn 0.997607 -0.020900 0.065900
vn 0.997607 -0.020900 0.065900
vn -0.005400 0.735023 -0.678021
vn -0.005400 0.735023 -0.678021
vn -0.005400 0.735023 -0.678021
vn -0.005400 0.735023 -0.678021
vn -0.728992 -0.592794 0.342296
vn -0.728992 -0.592794 0.342296
vn -0.728992 -0.592794 0.342296
vn -0.728992 -0.592794 0.342296
vn 0.000000 0.000000 1.000000
vn 0.000000 0.000000 1.000000
vn 0.000000 0.000000 1.000000
vn 0.000000 0.000000 1.000000
vn 0.999540 -0.029401 -0.007500
vn 0.999540 -0.029401 -0.007500
vn 0.999540 -0.029401 -0.007500
vn 0.999540 -0.029401 -0.007500
vn -0.011700 -0.212901 -0.977004
vn -0.011700 -0.212901 -0.977004
vn -0.011700 -0.212901 -0.977004
vn -0.011700 -0.212901 -0.977004
vn -0.728957 0.000000 0.684560
vn -0.728957 0.000000 0.684560
vn -0.728957 0.000000 0.684560
vn -0.728957 0.000000 0.684560
vn 0.000000 0.866019 0.500011
vn 0.000000 0.866019 0.500011
vn 0.000000 0.866019 0.500011
vn 0.000000 0.866019 0.500011
vn 0.985681 0.122198 0.116198
vn 0.985681 0.122198 0.116198
vn 0.985681 0.122198 0.116198
vn 0.985681 0.122198 0.116198
vn -0.001000 -0.952991 -0.302997
vn -0.001000 -0.952991 -0.302997
vn -0.001000 -0.952991 -0.302997
vn -0.001000 -0.952991 -0.302997
vn -0.728992 0.592794 0.342296
vn -0.728992 0.592794 0.342296
vn -0.728992 0.592794 0.342296
vn -0.728992 0.592794 0.342296
vn 0.000000 0.866019 -0.500011
vn 0.000000 0.866019 -0.500011
vn 0.000000 0.866019 -0.500011
vn 0.000000 0.866019 -0.500011
vn 0.928794 0.307598 -0.206699
vn 0.928794 0.307598 -0.206699
vn 0.928794 0.307598 -0.206699
vn 0.928794 0.307598 -0.206699
vn -0.004600 -0.735409 0.677608
vn -0.004600 -0.735409 0.677608
vn -0.004600 -0.735409 0.677608
vn -0.004600 -0.735409 0.677608
vn -0.728992 0.592794 -0.342296
vn -0.728992 0.592794 -0.342296
vn -0.728992 0.592794 -0.342296
vn -0.728992 0.592794 -0.342296
vn 0.000000 0.000000 -1.000000
vn 0.000000 0.000000 -1.000000
vn 0.000000 0.000000 -1.000000
vn 0.000000 0.000000 -1.000000
vn 0.907420 -0.091202 -0.410209
vn 0.907420 -0.091202 -0.410209
vn 0.907420 -0.091202 -0.410209
vn 0.907420 -0.091202 -0.410209
vn -0.009200 0.213595 0.976879
vn -0.009200 0.213595 0.976879
vn -0.009200 0.213595 0.976879
vn -0.009200 0.213595 0.976879
vn -0.728957 0.000000 -0.684560
vn -0.728957 0.000000 -0.684560
vn -0.728957 0.000000 -0.684560
vn -0.728957 0.000000 -0.684560
s off
g initialShadingGroup polySurface26
f 1/1/1 2/2/2 3/3/3 4/4/4
f 2/5/5 5/6/6 6/7/7 3/8/8
f 5/9/9 7/10/10 8/11/11 6/12/12
f 7/10/13 1/13/14 4/14/15 8/11/16
f 4/15/17 3/16/18 3/17/19 9/18/20 10/19/21
f 3/8/22 6/7/23 11/20/24 3/21/25
f 6/12/26 8/11/27 12/22/28 11/23/29
f 8/11/30 4/14/31 10/24/32 12/22/33
f 10/19/34 9/18/35 13/25/36 14/26/37
f 9/27/38 11/20/39 15/28/40 13/25/41
f 11/23/42 12/22/43 16/29/44 15/30/45
f 12/22/46 10/24/47 14/26/48 16/29/49
f 14/26/50 13/25/51 17/31/52 18/32/53
f 13/25/54 15/28/55 19/33/56 17/31/57
f 15/30/58 16/29/59 20/34/60 19/35/61
f 16/29/62 14/26/63 18/32/64 20/34/65
f 18/32/66 17/31/67 21/36/68 22/37/69
f 17/31/70 19/33/71 23/38/72 21/39/73
f 19/35/74 20/34/75 24/40/76 23/41/77
f 20/34/78 18/32/79 22/42/80 24/40/81
f 22/37/82 21/36/83 2/2/84 1/1/85
f 21/39/86 5/6/87 2/5/88
f 23/41/89 24/40/90 7/10/91 5/9/92
f 24/40/93 22/42/94 1/13/95 7/10/96
f 11/20/97 9/27/98 3/21/99
f 21/39/100 23/38/101 5/6/102
f 25/43/103 26/44/104 27/45/105 28/46/106 29/47/107 30/48/108
f 31/49/109 32/50/110 33/51/111 34/52/112 35/53/113 36/54/114
f 27/55/115 37/56/116 38/57/117 28/58/118
f 25/43/119 39/59/120 40/60/121 26/44/122
f 29/61/123 41/62/124 42/63/125 30/64/126
s 1
f 28/65/127 38/66/128 41/67/129
s off
f 26/44/130 40/60/131 37/56/132 27/55/133
f 30/64/134 42/63/135 39/59/136 25/43/137
f 43/68/138 44/69/139 38/57/140 37/56/141
f 45/70/142 46/71/143 40/60/144 39/59/145
f 47/72/146 48/73/147 42/63/148 41/62/149
s 2
f 38/66/150 47/74/151 41/67/152
s off
f 46/71/153 43/68/154 37/56/155 40/60/156
f 48/73/157 45/70/158 39/59/159 42/63/160
f 36/75/161 35/76/162 44/69/163 43/68/164
f 32/50/165 31/49/166 46/71/167 45/70/168
f 34/77/169 33/78/170 48/73/171 47/72/172
s 3
f 35/53/173 34/52/174 44/79/175
s off
f 31/49/176 36/75/177 43/68/178 46/71/179
f 33/78/180 32/50/181 45/70/182 48/73/183
s 3
f 44/79/175 34/52/174 47/74/184
s 2
f 38/66/150 44/79/185 47/74/151
s 1
f 28/65/127 41/67/129 29/80/186
s off
f 49/81/187 50/82/188 51/83/189 52/84/190
f 50/82/191 53/85/192 54/86/193 51/83/194
f 55/87/195 56/88/196 54/86/197 53/85/198
f 57/89/199 49/81/200 52/84/201 58/90/202
f 52/91/203 51/83/204 59/92/205 60/93/206
f 51/83/207 54/86/208 61/94/209 59/92/210
f 56/88/211 62/95/212 61/94/213 54/86/214
f 58/96/215 52/91/216 60/93/217 63/97/218
f 60/98/219 59/92/220 64/99/221 65/100/222
f 59/92/223 61/94/224 66/101/225 64/99/226
f 62/95/227 67/102/228 66/101/229 61/94/230
f 63/103/231 60/98/232 65/100/233 68/104/234
f 65/105/235 64/99/236 69/106/237 70/107/238
f 64/99/239 66/101/240 71/108/241 69/106/242
f 67/102/243 72/109/244 71/108/245 66/101/246
f 68/110/247 65/105/248 70/107/249 73/111/250
f 70/112/251 69/106/252 74/113/253 75/114/254
f 69/106/255 71/108/256 76/115/257 74/113/258
f 72/109/259 77/116/260 76/115/261 71/108/262
f 73/117/263 70/112/264 75/114/265 78/118/266
f 75/119/267 74/113/268 50/82/269 49/120/270
f 74/113/271 76/115/272 53/85/273 50/82/274
f 77/116/275 55/87/276 53/85/277 76/115/278
f 78/121/279 75/119/280 49/120/281 57/122/282
