# 3ds Max Wavefront OBJ Exporter v0.97b - (c)2007 guruware
# File Created: 15.10.2016 14:26:59

mtllib CrazyHair.mtl

#
# object Object005
#

v  -5.6875 43.7578 9.9754
v  -3.2962 41.6798 8.0775
v  -5.3142 40.6638 8.8063
v  -3.1278 39.7183 9.2552
v  -6.9399 37.9614 6.6544
v  -2.9038 39.9935 5.1968
v  -2.5670 36.0705 7.5523
v  -8.0255 47.8876 7.7622
v  -6.1338 44.2221 4.6151
v  -8.9362 43.0283 4.0294
v  -7.8724 42.6718 6.2198
v  -8.1023 38.1331 2.1406
v  -2.4973 40.5207 3.3120
v  -5.9746 37.4201 6.5214
v  -10.3265 50.4641 -0.9852
v  -7.8969 46.0382 0.4888
v  -10.7890 44.4220 -0.7874
v  -10.6711 44.5612 1.9802
v  -8.0038 38.2726 -0.7447
v  -3.2747 41.5050 0.4931
v  -8.8230 38.5509 3.4760
v  -7.8842 47.8181 -5.1493
v  -6.0305 44.1713 -4.2413
v  -7.9418 42.5391 -5.6859
v  -8.8106 43.1335 -3.4732
v  -6.2197 37.2068 -5.8205
v  -2.3971 40.4714 -2.9313
v  -7.6889 38.0842 -2.8509
v  -2.5971 43.4714 -8.9060
v  -2.5986 41.3366 -7.0382
v  -2.7763 39.4150 -8.2482
v  -4.7918 40.5370 -7.5985
v  -2.2689 35.6631 -6.6540
v  -1.9135 39.5062 -4.2341
v  -6.2999 37.9071 -5.3547
v  -7.7458 47.8181 -2.6554
v  -7.2167 44.1713 -0.5807
v  -7.3913 42.5391 -3.0466
v  -9.5641 43.1335 -2.3232
v  -6.1862 37.2068 -1.7479
v  -5.8369 40.4714 3.1839
v  -9.2971 38.0842 -1.0209
# 42 vertices

vn -0.4365 0.1786 -0.8818
vn -0.3366 -0.2480 0.9084
vn 0.7754 0.2660 0.5728
vn -0.6054 0.5434 -0.5815
vn -0.3657 -0.3021 0.8803
vn 0.9943 0.0832 0.0664
vn -0.1084 0.4511 -0.8858
vn -0.8964 -0.0999 0.4319
vn 0.7357 -0.1124 0.6680
vn 0.0384 0.2447 -0.9688
vn -0.8922 -0.2027 0.4037
vn 0.5250 0.1589 0.8361
vn 0.4155 -0.0406 -0.9087
vn -0.9978 0.0524 0.0406
vn 0.2457 0.2891 0.9252
vn 0.2137 0.0973 -0.9720
vn -0.9640 -0.2543 -0.0779
vn 0.3075 0.2122 0.9276
vn 0.5402 0.0509 -0.8400
vn -0.9192 0.0324 -0.3925
vn 0.1421 0.2038 0.9686
vn 0.4773 0.1182 -0.8708
vn -0.9173 -0.1803 -0.3549
vn 0.0087 0.1437 0.9896
vn 0.9973 -0.0364 -0.0639
vn -0.3567 -0.0863 -0.9302
vn -0.4305 0.4426 0.7866
vn 0.9748 0.0286 -0.2210
vn -0.4801 -0.2716 -0.8341
vn -0.4679 0.5573 0.6859
vn 0.9907 0.0509 -0.1261
vn -0.2901 0.0324 -0.9564
vn -0.6507 0.2038 0.7315
vn 0.9738 0.1182 -0.1941
vn -0.3178 -0.1803 -0.9309
vn -0.7525 0.1437 0.6428
# 36 vertex normals

vt 0.6667 1.0000 2.9231
vt 0.5833 0.7500 2.9231
vt 0.7500 0.7500 2.9231
vt -0.0000 1.0000 2.9231
vt -0.0833 0.7500 2.9231
vt 0.0833 0.7500 2.9231
vt 0.3333 1.0000 2.9231
vt 0.2500 0.7500 2.9231
vt 0.4167 0.7500 2.9231
vt 0.8333 0.5000 2.9231
vt 0.5000 0.5000 2.9231
vt 0.1667 0.5000 2.9231
vt -0.1667 0.5000 2.9231
# 13 texture coords

g Object005
usemtl 01___Default
f 1/1/1 2/2/1 3/3/1 
f 1/4/2 3/5/2 4/6/2 
f 1/7/3 4/8/3 2/9/3 
f 5/10/4 3/3/4 2/2/4 6/11/4 
f 7/12/5 4/6/5 3/5/5 5/13/5 
f 7/12/6 6/11/6 2/9/6 4/8/6 
f 8/1/7 9/2/7 10/3/7 
f 8/4/8 10/5/8 11/6/8 
f 8/7/9 11/8/9 9/9/9 
f 12/10/10 10/3/10 9/2/10 13/11/10 
f 14/12/11 11/6/11 10/5/11 12/13/11 
f 14/12/12 13/11/12 9/9/12 11/8/12 
f 15/1/13 16/2/13 17/3/13 
f 15/4/14 17/5/14 18/6/14 
f 15/7/15 18/8/15 16/9/15 
f 19/10/16 17/3/16 16/2/16 20/11/16 
f 21/12/17 18/6/17 17/5/17 19/13/17 
f 21/12/18 20/11/18 16/9/18 18/8/18 
f 22/1/19 23/2/19 24/3/19 
f 22/4/20 24/5/20 25/6/20 
f 22/7/21 25/8/21 23/9/21 
f 26/10/22 24/3/22 23/2/22 27/11/22 
f 28/12/23 25/6/23 24/5/23 26/13/23 
f 28/12/24 27/11/24 23/9/24 25/8/24 
f 29/1/25 30/2/25 31/3/25 
f 29/4/26 31/5/26 32/6/26 
f 29/7/27 32/8/27 30/9/27 
f 33/10/28 31/3/28 30/2/28 34/11/28 
f 35/12/29 32/6/29 31/5/29 33/13/29 
f 35/12/30 34/11/30 30/9/30 32/8/30 
f 36/1/31 37/2/31 38/3/31 
f 36/4/32 38/5/32 39/6/32 
f 36/7/33 39/8/33 37/9/33 
f 40/10/34 38/3/34 37/2/34 41/11/34 
f 42/12/35 39/6/35 38/5/35 40/13/35 
f 42/12/36 41/11/36 37/9/36 39/8/36 
# 18 polygons - 18 triangles

